PathFileType	4	(X/Y/Z)	Running2.trc
DataRate	CameraRate	NumFrames	NumMarkers	Units	OrigDataRate	OrigDataStartFrame	OrigNumFrames
100	100	98	2	mm	100	5251	6000
Frame#	Time	mal_lat_left			mal_lat_right		
		X	Y	Z	X	Y	Z	
5251	26.25	1015.58734130859	367.838958740234	93.1691665649414	570.2958984375	182.201309204102	317.682952880859
5252	26.255	1003.99926757812	367.649719238281	94.4697799682617	576.27392578125	182.615524291992	321.050231933594
5253	26.26	992.632385253906	367.96630859375	95.395881652832	582.789428710938	183.165771484375	324.148742675781
5254	26.265	981.745910644531	368.927093505859	96.2393798828125	590.530456542969	183.348602294922	326.679168701172
5255	26.27	970.641784667969	370.111907958984	97.0288467407227	598.20556640625	183.8564453125	328.767272949219
5256	26.275	959.396179199219	371.120971679688	97.4826889038086	606.141906738281	184.423828125	330.361206054688
5257	26.28	947.964477539062	371.84619140625	97.8467712402344	613.984069824219	185.136245727539	331.399688720703
5258	26.285	936.517456054688	372.247192382812	98.1503829956055	622.832397460938	185.208129882812	331.912536621094
5259	26.29	924.676452636719	372.485687255859	98.6582336425781	631.372375488281	185.563095092773	331.8818359375
5260	26.295	912.781372070312	372.412109375	99.1721038818359	640.154602050781	185.921127319336	331.344055175781
5261	26.3	900.892761230469	372.289825439453	99.718132019043	648.994445800781	186.241821289062	330.221466064453
5262	26.305	888.898620605469	372.111328125	100.325286865234	657.923767089844	186.601104736328	328.577026367188
5263	26.31	876.962585449219	372.001312255859	101.049865722656	667.090637207031	187.030639648438	326.358276367188
5264	26.315	864.882446289062	372.090179443359	101.956901550293	676.196472167969	187.345199584961	323.697998046875
5265	26.32	852.959899902344	372.156494140625	102.940361022949	685.307861328125	187.835342407227	320.549407958984
5266	26.325	841.055786132812	372.373260498047	104.113876342773	694.447509765625	188.311538696289	316.953857421875
5267	26.33	829.295043945312	372.527557373047	105.490661621094	703.636962890625	188.840545654297	312.962615966797
5268	26.335	817.705444335938	372.791778564453	107.098793029785	712.93212890625	189.404174804688	308.520080566406
5269	26.34	806.349792480469	373.185089111328	109.007034301758	722.227172851562	190.145233154297	303.765319824219
5270	26.345	795.108032226562	373.674957275391	111.283653259277	731.59375	190.834381103516	298.638732910156
5271	26.35	784.237854003906	374.261566162109	113.79020690918	741.133544921875	191.711547851562	293.187622070312
5272	26.355	773.534301757812	374.993835449219	116.642196655273	750.6650390625	192.4833984375	287.447814941406
5273	26.36	763.269409179688	375.778869628906	119.730072021484	760.53662109375	193.506454467773	281.435913085938
5274	26.365	753.243835449219	376.769592285156	123.112869262695	770.593627929688	194.561813354492	275.134460449219
5275	26.37	743.526184082031	377.679656982422	126.737976074219	780.865783691406	195.647186279297	268.667327880859
5276	26.375	734.210266113281	378.865203857422	130.603012084961	791.398193359375	196.85563659668	261.907684326172
5277	26.38	725.250549316406	380.078552246094	134.683670043945	801.891174316406	197.831512451172	255.079223632812
5278	26.385	716.675903320312	381.445678710938	138.842758178711	813.178405761719	199.276641845703	247.920532226562
5279	26.39	708.510314941406	382.814056396484	143.140335083008	824.363037109375	200.494567871094	240.713165283203
5280	26.395	700.631469726562	384.325103759766	147.612274169922	836.017822265625	201.818817138672	233.402313232422
5281	26.4	693.180419921875	385.785003662109	152.089630126953	847.9052734375	203.105545043945	225.995452880859
5282	26.405	686.047607421875	387.435119628906	156.692947387695	860.003112792969	204.372055053711	218.531509399414
5283	26.41	679.186401367188	389.000732421875	161.300369262695	872.422302246094	205.502319335938	211.068542480469
5284	26.415	672.760498046875	390.688842773438	165.934661865234	885.141296386719	206.741882324219	203.564849853516
5285	26.42	666.57763671875	392.401123046875	170.608505249023	897.96484375	207.827423095703	196.260848999023
5286	26.425	660.71337890625	394.133819580078	175.256286621094	911.090637207031	208.8125	188.873245239258
5287	26.43	655.14453125	395.949035644531	179.960678100586	924.327087402344	209.613952636719	181.661926269531
5288	26.435	649.890625	397.787902832031	184.618927001953	937.798095703125	210.391799926758	174.525131225586
5289	26.44	644.800231933594	399.649475097656	189.327026367188	951.386352539062	210.928009033203	167.60205078125
5290	26.445	639.98828125	401.430419921875	193.934158325195	965.051696777344	211.424575805664	161.011810302734
5291	26.45	635.368835449219	403.180358886719	198.637817382812	978.733276367188	211.732666015625	154.664291381836
5292	26.455	630.860900878906	404.899169921875	203.21647644043	992.320678710938	211.861282348633	148.69108581543
5293	26.46	626.444396972656	406.466827392578	207.758773803711	1005.7919921875	211.885192871094	143.041091918945
5294	26.465	622.010986328125	408.074249267578	212.360122680664	1018.91540527344	211.764892578125	137.855728149414
5295	26.47	617.451843261719	409.605224609375	216.962249755859	1031.6279296875	211.472839355469	133.066909790039
5296	26.475	612.700012207031	411.017639160156	221.783340454102	1043.74682617188	211.134506225586	128.824432373047
5297	26.48	607.655090332031	412.388275146484	226.860778808594	1055.14074707031	210.724761962891	125.07218170166
5298	26.485	602.593200683594	413.655181884766	232.078155517578	1065.91870117188	210.280456542969	121.752197265625
5299	26.49	597.554504394531	414.751983642578	237.489242553711	1075.91772460938	209.956298828125	118.90421295166
5300	26.495	592.738098144531	415.733795166016	243.049850463867	1084.94946289062	209.720306396484	116.425071716309
5301	26.5	588.256774902344	416.694641113281	248.760467529297	1093.09753417969	209.736099243164	114.260276794434
5302	26.505	584.088195800781	417.531921386719	254.501693725586	1100.11499023438	209.90348815918	112.36897277832
5303	26.51	580.349304199219	418.416168212891	260.349945068359	1106.07470703125	210.216430664062	110.353645324707
5304	26.515	577.074829101562	419.238342285156	266.18701171875	1110.75708007812	210.585632324219	108.241928100586
5305	26.52	574.130065917969	420.04296875	272.019805908203	1114.31860351562	210.973220825195	105.86491394043
5306	26.525	571.770263671875	420.768249511719	277.871826171875	1116.806640625	211.275817871094	103.116905212402
5307	26.53	569.849731445312	421.450531005859	283.692474365234	1118.04406738281	211.521118164062	100.222564697266
5308	26.535	568.546508789062	422.149780273438	289.356231689453	1118.50280761719	211.822967529297	96.9162673950195
5309	26.54	567.866821289062	422.744201660156	294.880432128906	1117.71765136719	211.92903137207	93.7186737060547
5310	26.545	567.771362304688	423.253509521484	300.270812988281	1116.21032714844	211.739929199219	90.7089157104492
5311	26.55	568.2509765625	423.758819580078	305.492340087891	1113.76171875	211.553695678711	88.5212860107422
5312	26.555	569.337707519531	423.977416992188	310.511932373047	1109.77758789062	211.969757080078	86.1973342895508
5313	26.56	571.075866699219	424.350372314453	315.306457519531	1103.70751953125	213.077514648438	83.9440612792969
5314	26.565	573.509094238281	424.643157958984	319.860168457031	1095.6630859375	214.88200378418	82.4964294433594
5315	26.57	576.553344726562	424.853790283203	324.110015869141	1085.97448730469	216.815246582031	81.5978240966797
5316	26.575	580.271118164062	425.193389892578	328.178771972656	1074.21862792969	219.221481323242	81.5192565917969
5317	26.58	584.755798339844	425.4638671875	331.923095703125	1062.49780273438	221.041900634766	82.5841522216797
5318	26.585	589.929748535156	425.773132324219	335.377349853516	1052.78125	222.222991943359	84.4013366699219
5319	26.59	595.856079101562	426.071197509766	338.499053955078	1044.11791992188	222.934982299805	86.1615982055664
5320	26.595	602.472839355469	426.422271728516	341.210845947266	1035.32495117188	223.582473754883	87.667366027832
5321	26.6	609.6591796875	426.728332519531	343.455780029297	1025.10986328125	224.268646240234	88.9519500732422
5322	26.605	617.265380859375	427.013671875	345.285675048828	1014.07318115234	224.821517944336	90.1648178100586
5323	26.61	625.3056640625	427.399383544922	346.692138671875	1003.07696533203	225.096374511719	90.8571243286133
5324	26.615	633.610290527344	427.763946533203	347.625762939453	992.013671875	225.066940307617	91.3276214599609
5325	26.62	642.0791015625	428.234619140625	348.197052001953	980.562561035156	225.021301269531	91.4824295043945
5326	26.625	650.587707519531	428.571197509766	348.179290771484	968.73095703125	225.025039672852	91.6492309570312
5327	26.63	659.165466308594	429.109954833984	347.793334960938	956.934143066406	225.224502563477	91.6606597900391
5328	26.635	667.868896484375	429.611938476562	346.898498535156	944.920837402344	225.484786987305	91.8837127685547
5329	26.64	676.645141601562	430.175445556641	345.667602539062	932.876281738281	225.854736328125	92.2293701171875
5330	26.645	685.504089355469	430.739074707031	343.8447265625	920.834655761719	226.128204345703	92.7472915649414
5331	26.65	694.398559570312	431.173797607422	341.675140380859	908.865844726562	226.460556030273	93.0553588867188
5332	26.655	703.412353515625	431.616271972656	339.000061035156	896.630798339844	226.392608642578	93.5559310913086
5333	26.66	712.457702636719	431.909881591797	335.907379150391	884.447204589844	226.181671142578	94.1920471191406
5334	26.665	721.509094238281	432.184204101562	332.409545898438	872.314758300781	225.855621337891	94.87451171875
5335	26.67	730.554443359375	432.109832763672	328.16796875	860.196533203125	225.436386108398	95.7563781738281
5336	26.675	739.555358886719	432.179565429688	323.861358642578	848.19189453125	224.887619018555	96.7651748657227
5337	26.68	748.620788574219	432.107086181641	319.133514404297	836.278991699219	224.157958984375	97.9401550292969
5338	26.685	757.591979980469	431.983093261719	314.095672607422	824.577087402344	223.472457885742	99.3556442260742
5339	26.69	766.617126464844	431.882537841797	308.787109375	813.007507324219	222.603042602539	101.06819152832
5340	26.695	775.7587890625	431.609191894531	303.072265625	801.625671386719	221.611999511719	103.12931060791
5341	26.7	784.929443359375	431.226806640625	297.146759033203	790.30322265625	220.579498291016	105.580284118652
5342	26.705	794.214904785156	430.757385253906	290.9521484375	779.319274902344	219.497177124023	108.343132019043
5343	26.71	803.747497558594	430.045227050781	284.289276123047	768.69580078125	218.297698974609	111.395355224609
5344	26.715	813.466857910156	429.286926269531	277.510040283203	758.305847167969	217.124130249023	114.773910522461
5345	26.72	823.321105957031	428.447845458984	270.520874023438	748.352783203125	215.608947753906	118.609504699707
5346	26.725	833.533081054688	427.495086669922	263.245941162109	738.423156738281	214.544815063477	122.61506652832
5347	26.73	843.918090820312	426.499084472656	255.883117675781	729.111572265625	213.292343139648	126.713638305664
5348	26.735	854.74462890625	425.171752929688	248.179061889648	720.491333007812	212.259323120117	130.401916503906
